#!OML:ASF H:\Dans Jumps\Project 1\Capture day 1\Session 1\subject.ASF
:FULLY-SPECIFIED
:DEGREES
101
root 0.688957 17.4687 -14.0464 4.40608 -1.12423 -1.52375
lowerback -2.07231 -0.775488 -0.415972
upperback 2.31896 -1.0816 1.89293
thorax 3.59248 -0.577042 2.12703
lowerneck -13.6754 0.621887 -1.6071
upperneck 28.768 1.33966 -0.114089
head 11.6354 0.407496 0.41926
rclavicle 5.26779e-015 1.86858e-014
rhumerus -22.4481 -16.386 -81.1343
rradius 25.1687
rwrist 31.6397
rhand -18.6507 -27.1685
rfingers 7.12502
rthumb 7.6423 -57.0104
lclavicle 5.26779e-015 1.86858e-014
lhumerus -21.3046 0.574766 87.7914
lradius 20.3853
lwrist 2.38621
lhand -24.6699 -2.75651
lfingers 7.12502
lthumb 1.83034 27.2154
rfemur -11.9909 -2.30176 19.669
rtibia 24.0955
rfoot -14.9036 -4.00966
rtoes 9.33678
lfemur -11.482 9.40367 -19.1312
ltibia 21.6106
lfoot -13.0595 3.4944
ltoes -1.37423
102
root 0.690136 17.4687 -14.043 4.39324 -1.13458 -1.51645
lowerback -2.08909 -0.769707 -0.434746
upperback 2.31675 -1.07316 1.89019
thorax 3.59966 -0.573315 2.13501
lowerneck -13.6731 0.624454 -1.60084
upperneck 28.776 1.34609 -0.128215
head 11.6382 0.409238 0.413875
rclavicle -1.49089e-015 1.07344e-014
rhumerus -22.5091 -16.5627 -81.0704
rradius 25.0372
rwrist 31.8284
rhand -18.6814 -27.114
rfingers 7.12502
rthumb 7.6127 -56.957
lclavicle -1.49089e-015 1.07344e-014
lhumerus -21.3467 0.524239 87.8196
lradius 20.3556
lwrist 2.38188
lhand -24.6609 -2.75418
lfingers 7.12502
lthumb 1.83908 27.2176
rfemur -11.9609 -2.29123 19.6567
rtibia 24.0855
rfoot -14.9093 -4.02312
rtoes 9.28877
lfemur -11.4377 9.38497 -19.1395
ltibia 21.5818
lfoot -13.0546 3.5206
ltoes -1.35745
103
root 0.691236 17.4687 -14.0395 4.38173 -1.14076 -1.50768
lowerback -2.10727 -0.76635 -0.454037
upperback 2.31326 -1.06793 1.88774
thorax 3.60643 -0.571195 2.1434
lowerneck -13.6739 0.628853 -1.59461
upperneck 28.7877 1.35503 -0.141549
head 11.6431 0.412152 0.409168
rclavicle -3.1408e-014 1.82882e-014
rhumerus -22.5697 -16.7409 -81.0047
rradius 24.904
rwrist 32.0238
rhand -18.7137 -27.0559
rfingers 7.12502
rthumb 7.58149 -56.9
lclavicle -3.1408e-014 1.82882e-014
lhumerus -21.3943 0.467864 87.8473
lradius 20.3323
lwrist 2.38149
lhand -24.6452 -2.73822
lfingers 7.12502
lthumb 1.85419 27.2335
rfemur -11.9321 -2.28167 19.6428
rtibia 24.077
rfoot -14.9155 -4.0369
rtoes 9.2474
lfemur -11.3955 9.36272 -19.1498
ltibia 21.5537
lfoot -13.0493 3.54839
ltoes -1.34955
104
root 0.692231 17.4687 -14.0362 4.37189 -1.14404 -1.49958
lowerback -2.12614 -0.764628 -0.472034
upperback 2.30788 -1.06494 1.88652
thorax 3.61174 -0.570156 2.15221
lowerneck -13.6774 0.635332 -1.58868
upperneck 28.8031 1.36729 -0.155346
head 11.6499 0.41642 0.404829
rclavicle 7.10655e-015 -1.39149e-014
rhumerus -22.6314 -16.9196 -80.9367
rradius 24.7715
rwrist 32.2269
rhand -18.7424 -27.0033
rfingers 7.12502
rthumb 7.55383 -56.8485
lclavicle 7.10655e-015 -1.39149e-014
lhumerus -21.4456 0.406066 87.875
lradius 20.3123
lwrist 2.38337
lhand -24.6256 -2.7062
lfingers 7.12502
lthumb 1.87313 27.2653
rfemur -11.9045 -2.26908 19.6296
rtibia 24.0696
rfoot -14.9224 -4.05174
rtoes 9.22666
lfemur -11.356 9.33951 -19.1595
ltibia 21.5262
lfoot -13.0437 3.57524
ltoes -1.34166
105
root 0.693134 17.4688 -14.0329 4.36317 -1.14483 -1.49273
lowerback -2.14654 -0.764364 -0.488533
upperback 2.30193 -1.06399 1.88675
thorax 3.61741 -0.570115 2.16155
lowerneck -13.6818 0.642637 -1.58509
upperneck 28.8186 1.38078 -0.167138
head 11.6569 0.421232 0.401812
rclavicle -2.88238e-015 -1.27222e-014
rhumerus -22.6937 -17.102 -80.8646
rradius 24.6362
rwrist 32.4481
rhand -18.781 -26.9289
rfingers 7.12502
rthumb 7.51653 -56.7753
lclavicle -2.88238e-015 -1.27222e-014
lhumerus -21.5011 0.346196 87.9014
lradius 20.2982
lwrist 2.3793
lhand -24.5997 -2.66913
lfingers 7.12502
lthumb 1.89818 27.3022
rfemur -11.8774 -2.25588 19.6177
rtibia 24.0629
rfoot -14.9316 -4.06537
rtoes 9.22075
lfemur -11.3184 9.31712 -19.1678
ltibia 21.4996
lfoot -13.0392 3.59939
ltoes -1.33279
106
root 0.693975 17.4689 -14.0296 4.3549 -1.14401 -1.48338
lowerback -2.16656 -0.764554 -0.506373
upperback 2.2939 -1.06357 1.88701
thorax 3.62076 -0.570341 2.17167
lowerneck -13.6836 0.649625 -1.58329
upperneck 28.8342 1.39393 -0.177899
head 11.6634 0.425834 0.399425
rclavicle -1.3418e-015 -9.14409e-015
rhumerus -22.7605 -17.2785 -80.7898
rradius 24.5035
rwrist 32.6705
rhand -18.8212 -26.8563
rfingers 7.12502
rthumb 7.47777 -56.7041
lclavicle -1.3418e-015 -9.14409e-015
lhumerus -21.5619 0.288083 87.9268
lradius 20.2881
lwrist 2.37004
lhand -24.5665 -2.6378
lfingers 7.12502
lthumb 1.93025 27.3332
rfemur -11.8503 -2.24283 19.6025
rtibia 24.0562
rfoot -14.9424 -4.07656
rtoes 9.23705
lfemur -11.2824 9.29646 -19.1788
ltibia 21.4745
lfoot -13.0364 3.62002
ltoes -1.32623
107
root 0.694704 17.469 -14.0264 4.34681 -1.14134 -1.47496
lowerback -2.1854 -0.76493 -0.522151
upperback 2.28538 -1.06347 1.8881
thorax 3.62293 -0.57068 2.18149
lowerneck -13.6878 0.655724 -1.58325
upperneck 28.8485 1.4057 -0.186623
head 11.6698 0.429892 0.39791
rclavicle 6.85807e-015 9.14409e-015
rhumerus -22.826 -17.4508 -80.7145
rradius 24.3726
rwrist 32.8863
rhand -18.8589 -26.7916
rfingers 7.12502
rthumb 7.44133 -56.6407
lclavicle 6.85807e-015 9.14409e-015
lhumerus -21.6244 0.225411 87.9523
lradius 20.2813
lwrist 2.36161
lhand -24.5312 -2.61146
lfingers 7.12502
lthumb 1.96437 27.3592
rfemur -11.8229 -2.23042 19.5885
rtibia 24.0491
rfoot -14.9546 -4.08562
rtoes 9.27188
lfemur -11.2478 9.27804 -19.1882
ltibia 21.4512
lfoot -13.0363 3.63543
ltoes -1.30921
108
root 0.69536 17.469 -14.0234 4.33826 -1.13575 -1.46566
lowerback -2.20129 -0.765262 -0.536448
upperback 2.27569 -1.06332 1.8886
thorax 3.62217 -0.570915 2.1899
lowerneck -13.6934 0.66128 -1.58223
upperneck 28.8634 1.41637 -0.194924
head 11.6768 0.433605 0.396244
rclavicle -8.99501e-015 2.22639e-014
rhumerus -22.8934 -17.6146 -80.6406
rradius 24.2498
rwrist 33.0836
rhand -18.8935 -26.7442
rfingers 7.12502
rthumb 7.40794 -56.5945
lclavicle -8.99501e-015 2.22639e-014
lhumerus -21.6881 0.161967 87.9761
lradius 20.276
lwrist 2.34791
lhand -24.4907 -2.59133
lfingers 7.12502
lthumb 2.0035 27.379
rfemur -11.796 -2.22377 19.5743
rtibia 24.0415
rfoot -14.9666 -4.0956
rtoes 9.28502
lfemur -11.2152 9.26182 -19.1981
ltibia 21.4304
lfoot -13.0379 3.64522
ltoes -1.28733
109
root 0.695928 17.469 -14.0205 4.32837 -1.1274 -1.45533
lowerback -2.21317 -0.766112 -0.549868
upperback 2.26559 -1.06388 1.88946
thorax 3.61874 -0.571465 2.1982
lowerneck -13.6998 0.665993 -1.5835
upperneck 28.8754 1.42584 -0.201287
head 11.6828 0.436809 0.395521
rclavicle -8.15017e-015 1.78906e-014
rhumerus -22.9594 -17.7582 -80.5721
rradius 24.142
rwrist 33.2376
rhand -18.9091 -26.7355
rfingers 7.12502
rthumb 7.39286 -56.5864
lclavicle -8.15017e-015 1.78906e-014
lhumerus -21.7492 0.102727 87.9985
lradius 20.2695
lwrist 2.33073
lhand -24.4443 -2.56907
lfingers 7.12502
lthumb 2.04831 27.4008
rfemur -11.7676 -2.22088 19.5592
rtibia 24.0331
rfoot -14.9779 -4.10573
rtoes 9.28591
lfemur -11.184 9.24816 -19.2087
ltibia 21.4126
lfoot -13.0412 3.651
ltoes -1.27589
110
root 0.696378 17.4689 -14.0178 4.31877 -1.11509 -1.44685
lowerback -2.22232 -0.767561 -0.559241
upperback 2.25581 -1.0654 1.89097
thorax 3.61407 -0.572394 2.20487
lowerneck -13.7092 0.669906 -1.58676
upperneck 28.886 1.43428 -0.206061
head 11.6888 0.439542 0.395596
rclavicle 7.30534e-015 -2.78299e-015
rhumerus -23.0206 -17.8864 -80.5099
rradius 24.048
rwrist 33.3543
rhand -18.9031 -26.7627
rfingers 7.12502
rthumb 7.39872 -56.6133
lclavicle 7.30534e-015 -2.78299e-015
lhumerus -21.8041 0.0489289 88.0182
lradius 20.2594
lwrist 2.30503
lhand -24.396 -2.54696
lfingers 7.12502
lthumb 2.09494 27.4225
rfemur -11.7395 -2.22343 19.5469
rtibia 24.0236
rfoot -14.9891 -4.11525
rtoes 9.28273
lfemur -11.1569 9.23705 -19.2168
ltibia 21.3981
lfoot -13.0462 3.65095
ltoes -1.26553
111
root 0.696736 17.4687 -14.0153 4.30978 -1.09856 -1.43918
lowerback -2.23082 -0.770064 -0.565744
upperback 2.24669 -1.06846 1.89272
thorax 3.60974 -0.57402 2.21011
lowerneck -13.7204 0.673363 -1.59102
upperneck 28.8933 1.44183 -0.209145
head 11.6939 0.442009 0.396343
rclavicle -3.926e-015 -8.34896e-015
rhumerus -23.0743 -17.9965 -80.4563
rradius 23.9676
rwrist 33.4261
rhand -18.8665 -26.8335
rfingers 7.12502
rthumb 7.43403 -56.6829
lclavicle -3.926e-015 -8.34896e-015
lhumerus -21.8511 0.0114888 88.0324
lradius 20.2429
lwrist 2.26463
lhand -24.344 -2.52533
lfingers 7.12502
lthumb 2.14516 27.4436
rfemur -11.7115 -2.23349 19.5357
rtibia 24.0127
rfoot -14.9998 -4.12033
rtoes 9.28382
lfemur -11.1343 9.2286 -19.2241
ltibia 21.3871
lfoot -13.0517 3.64679
ltoes -1.27181
112
root 0.697005 17.4685 -14.013 4.30081 -1.07765 -1.43458
lowerback -2.24074 -0.773464 -0.56685
upperback 2.24088 -1.07299 1.89507
thorax 3.6096 -0.576299 2.21282
lowerneck -13.7359 0.677016 -1.5941
upperneck 28.8966 1.44938 -0.212171
head 11.6984 0.444649 0.396919
rclavicle 1.63997e-015 1.82882e-014
rhumerus -23.1186 -18.0856 -80.4135
rradius 23.9052
rwrist 33.4539
rhand -18.7946 -26.9526
rfingers 7.12502
rthumb 7.50343 -56.7996
lclavicle 1.63997e-015 1.82882e-014
lhumerus -21.8855 -0.00967626 88.0406
lradius 20.2187
lwrist 2.20996
lhand -24.2891 -2.49373
lfingers 7.12502
lthumb 2.19815 27.4747
rfemur -11.6826 -2.24805 19.5284
rtibia 23.9996
rfoot -15.0093 -4.12403
rtoes 9.29254
lfemur -11.1153 9.22143 -19.2278
ltibia 21.3799
lfoot -13.0581 3.63939
ltoes -1.29096
113
root 0.697211 17.4682 -14.0108 4.29244 -1.05348 -1.43213
lowerback -2.25095 -0.777046 -0.563519
upperback 2.2364 -1.07796 1.89748
thorax 3.61095 -0.578699 2.21306
lowerneck -13.7483 0.679503 -1.59846
upperneck 28.8932 1.45488 -0.213316
head 11.6995 0.446552 0.398081
rclavicle -4.02539e-015 2.0276e-014
rhumerus -23.1568 -18.1708 -80.3745
rradius 23.8473
rwrist 33.4716
rhand -18.7109 -27.0811
rfingers 7.12502
rthumb 7.58416 -56.9251
lclavicle -4.02539e-015 2.0276e-014
lhumerus -21.9109 -0.0127529 88.0416
lradius 20.1863
lwrist 2.13886
lhand -24.2281 -2.45166
lfingers 7.12502
lthumb 2.25705 27.5161
rfemur -11.6536 -2.26767 19.5237
rtibia 23.984
rfoot -15.017 -4.12521
rtoes 9.29874
lfemur -11.0996 9.21349 -19.2291
ltibia 21.3757
lfoot -13.0645 3.63051
ltoes -1.31087
114
root 0.697379 17.4678 -14.0088 4.28255 -1.02666 -1.432
lowerback -2.26035 -0.781239 -0.556071
upperback 2.23361 -1.08396 1.90068
thorax 3.61357 -0.581533 2.21175
lowerneck -13.7605 0.682219 -1.60365
upperneck 28.8878 1.46076 -0.213969
head 11.6998 0.448621 0.399612
rclavicle 9.69075e-015 3.97569e-015
rhumerus -23.19 -18.2485 -80.3382
rradius 23.7937
rwrist 33.4848
rhand -18.6254 -27.2109
rfingers 7.12502
rthumb 7.66674 -57.052
lclavicle 9.69075e-015 3.97569e-015
lhumerus -21.9288 0.0097053 88.0353
lradius 20.1456
lwrist 2.04893
lhand -24.1638 -2.4115
lfingers 7.12502
lthumb 2.31913 27.5556
rfemur -11.6211 -2.28867 19.5213
rtibia 23.9649
rfoot -15.0244 -4.12386
rtoes 9.32159
lfemur -11.0844 9.20289 -19.2275
ltibia 21.3744
lfoot -13.0713 3.62246
ltoes -1.33927
